<svg xmlns="http://www.w3.org/2000/svg" viewBox="0 0 687.89 48.67"><defs><style>.cls-1{fill:#2ca;}</style></defs><g id="Capa_2" data-name="Capa 2"><g id="Capa_1-2" data-name="Capa 1"><path class="cls-1" d="M5.54,58.43v-5H14.4V18.61H6.05v-5H29.16v5H20.3V53.46h9.29v5Z" transform="translate(-5.54 -10.55)"/><path class="cls-1" d="M37.15,58.43V25.52h6.12v5.55a15.38,15.38,0,0,1,2.88-3.28,13.17,13.17,0,0,1,3.64-2.19,11,11,0,0,1,4.14-.8,9.33,9.33,0,0,1,5,1.4,9.66,9.66,0,0,1,3.6,4.39,19.52,19.52,0,0,1,1.37,8V58.43h-6V38.75a15,15,0,0,0-.72-5.13,5.66,5.66,0,0,0-2-2.81,5,5,0,0,0-2.95-.89,7.88,7.88,0,0,0-3.1.67,10.61,10.61,0,0,0-2.91,1.89,9,9,0,0,0-2.13,3,9.42,9.42,0,0,0-.79,3.89v19.1Z" transform="translate(-5.54 -10.55)"/><path class="cls-1" d="M69.19,25.52H93.6v5H69.19ZM80.82,58a7.54,7.54,0,0,1-3.24-3.23A15.43,15.43,0,0,1,76,49.12a58.75,58.75,0,0,1-.26-8.31l.87-23.5L83,16.52l.72-.07.07.5a6.78,6.78,0,0,0-.61,1,5.61,5.61,0,0,0-.4,1.71l-.65,8.74.22,1L81.86,41a39.71,39.71,0,0,0,.29,8,6.58,6.58,0,0,0,1.77,3.9A4.73,4.73,0,0,0,87.12,54,9.19,9.19,0,0,0,91.33,53,27,27,0,0,0,95,50.72l1.58,4.68a18.87,18.87,0,0,1-5.07,2.7A17.09,17.09,0,0,1,86,59,11.38,11.38,0,0,1,80.82,58Z" transform="translate(-5.54 -10.55)"/><path class="cls-1" d="M117.5,59a18.73,18.73,0,0,1-6.58-1.1,14.55,14.55,0,0,1-5.19-3.23,13.94,13.94,0,0,1-3.35-5.34,21.5,21.5,0,0,1-1.15-7.25,21,21,0,0,1,1.19-7.32,15.5,15.5,0,0,1,3.28-5.41A14.28,14.28,0,0,1,110.59,26a15.41,15.41,0,0,1,6-1.18,14.86,14.86,0,0,1,5.33,1,11.69,11.69,0,0,1,4.35,2.89,13.83,13.83,0,0,1,2.92,4.9,20.27,20.27,0,0,1,1.08,7c0,.43,0,.89,0,1.39s-.06,1-.11,1.33h-23a14,14,0,0,0,1,4.94,9.66,9.66,0,0,0,2.34,3.37,9.45,9.45,0,0,0,3.28,1.93,12,12,0,0,0,3.92.63,13.16,13.16,0,0,0,3.13-.36,9.9,9.9,0,0,0,2.77-1.15,11.29,11.29,0,0,0,2.38-2l3.31,3.17A14.83,14.83,0,0,1,126,56.74a13.42,13.42,0,0,1-4,1.72A18.55,18.55,0,0,1,117.5,59ZM107.35,38.56h16.78a11.12,11.12,0,0,0-.58-3.76A8.94,8.94,0,0,0,122,32a6.17,6.17,0,0,0-2.49-1.81,8.58,8.58,0,0,0-3.27-.6,8.74,8.74,0,0,0-3.1.53,7.69,7.69,0,0,0-2.63,1.66,10,10,0,0,0-2,2.8A12.4,12.4,0,0,0,107.35,38.56Z" transform="translate(-5.54 -10.55)"/><path class="cls-1" d="M138.53,25.52h6.41l-.15,9.58-.79-.86a11.92,11.92,0,0,1,1.48-4,11.31,11.31,0,0,1,2.52-3,10.85,10.85,0,0,1,3.27-1.87A11,11,0,0,1,155,24.8a12.74,12.74,0,0,1,4.86.9,11.68,11.68,0,0,1,4,2.78l-2.66,5-.29.65-.5-.29c-.15-.38-.3-.75-.47-1.11a4,4,0,0,0-1.19-1.26,6.64,6.64,0,0,0-2.09-1.08,8.45,8.45,0,0,0-2.3-.29,9.84,9.84,0,0,0-3.46.64,9,9,0,0,0-5.33,5.44,14.14,14.14,0,0,0-.79,4.94V58.43h-6.26Z" transform="translate(-5.54 -10.55)"/><path class="cls-1" d="M169.63,58.43V25.52h6.12v5.55a15.38,15.38,0,0,1,2.88-3.28,13.17,13.17,0,0,1,3.64-2.19,11,11,0,0,1,4.14-.8,9.33,9.33,0,0,1,5,1.4,9.66,9.66,0,0,1,3.6,4.39,19.52,19.52,0,0,1,1.37,8V58.43h-6V38.75a15,15,0,0,0-.72-5.13,5.66,5.66,0,0,0-2-2.81,5,5,0,0,0-2.95-.89,7.88,7.88,0,0,0-3.1.67,10.61,10.61,0,0,0-2.91,1.89,9,9,0,0,0-2.13,3,9.42,9.42,0,0,0-.79,3.89v19.1Z" transform="translate(-5.54 -10.55)"/><path class="cls-1" d="M220.46,59a18.73,18.73,0,0,1-6.58-1.1,14.55,14.55,0,0,1-5.19-3.23,13.94,13.94,0,0,1-3.35-5.34,21.5,21.5,0,0,1-1.15-7.25,21,21,0,0,1,1.19-7.32,15.5,15.5,0,0,1,3.28-5.41A14.28,14.28,0,0,1,213.55,26a15.41,15.41,0,0,1,6-1.18,14.86,14.86,0,0,1,5.33,1,11.69,11.69,0,0,1,4.35,2.89,13.83,13.83,0,0,1,2.92,4.9,20.27,20.27,0,0,1,1.08,7c0,.43,0,.89,0,1.39s-.06,1-.11,1.33h-23a14,14,0,0,0,1,4.94,9.66,9.66,0,0,0,2.34,3.37,9.45,9.45,0,0,0,3.28,1.93,12,12,0,0,0,3.92.63,13.16,13.16,0,0,0,3.13-.36,9.9,9.9,0,0,0,2.77-1.15,11.29,11.29,0,0,0,2.38-2l3.31,3.17A14.83,14.83,0,0,1,229,56.74a13.42,13.42,0,0,1-4,1.72A18.55,18.55,0,0,1,220.46,59ZM210.31,38.56h16.78a11.12,11.12,0,0,0-.58-3.76A8.94,8.94,0,0,0,224.93,32a6.17,6.17,0,0,0-2.49-1.81,8.58,8.58,0,0,0-3.27-.6,8.74,8.74,0,0,0-3.1.53,7.69,7.69,0,0,0-2.63,1.66,10,10,0,0,0-2,2.8A12.4,12.4,0,0,0,210.31,38.56Z" transform="translate(-5.54 -10.55)"/><path class="cls-1" d="M238,25.52h24.41v5H238ZM249.66,58a7.54,7.54,0,0,1-3.24-3.23,15.43,15.43,0,0,1-1.58-5.62,58.75,58.75,0,0,1-.26-8.31l.87-23.5,6.41-.79.72-.07.07.5a6.78,6.78,0,0,0-.61,1,5.61,5.61,0,0,0-.4,1.71L251,28.41l.22,1L250.7,41a39.71,39.71,0,0,0,.29,8,6.58,6.58,0,0,0,1.77,3.9A4.73,4.73,0,0,0,256,54a9.19,9.19,0,0,0,4.21-.93,27,27,0,0,0,3.71-2.31l1.58,4.68a18.87,18.87,0,0,1-5.07,2.7,17.09,17.09,0,0,1-5.58.9A11.38,11.38,0,0,1,249.66,58Z" transform="translate(-5.54 -10.55)"/><path class="cls-1" d="M300.49,57.82a17.63,17.63,0,0,1-6.3-4.14l3.1-5.26.29-.65.5.29a11.1,11.1,0,0,0,.4,1.12,5.23,5.23,0,0,0,1,1.47,15.27,15.27,0,0,0,4.25,2.41,14.93,14.93,0,0,0,5.33.9,10.84,10.84,0,0,0,3.52-.53A9.42,9.42,0,0,0,315.4,52a6.46,6.46,0,0,0,1.83-2.21,6.08,6.08,0,0,0,.65-2.78,7.83,7.83,0,0,0-.25-2.07,4.67,4.67,0,0,0-.9-1.72A9.33,9.33,0,0,0,315,41.62a24.3,24.3,0,0,0-2.81-1.72q-1.72-.93-4.17-2A31,31,0,0,1,300.71,34a12.74,12.74,0,0,1-3.85-4.43,11.44,11.44,0,0,1-1.16-5.08,10,10,0,0,1,1.73-5.8,11.61,11.61,0,0,1,4.86-3.94,17.53,17.53,0,0,1,7.31-1.43,17.33,17.33,0,0,1,4.93.69,17.93,17.93,0,0,1,4.36,1.91,14.63,14.63,0,0,1,3.6,3.09L319,23.29l-.43.58-.5-.36a5.24,5.24,0,0,0-.29-1.15,4.88,4.88,0,0,0-1-1.44,8.42,8.42,0,0,0-3.38-2.06,15.16,15.16,0,0,0-4.32-.54,9.9,9.9,0,0,0-3,.43A6.1,6.1,0,0,0,303.84,20a6.84,6.84,0,0,0-1.48,1.9,4.63,4.63,0,0,0-.54,2.18,6.63,6.63,0,0,0,.29,2,5.87,5.87,0,0,0,.94,1.75,9.12,9.12,0,0,0,1.83,1.76,18.82,18.82,0,0,0,3,1.78c1.22.6,2.7,1.25,4.43,2A43,43,0,0,1,318,36.2a13.53,13.53,0,0,1,3.49,2.89,10.17,10.17,0,0,1,1.84,3.29,12.94,12.94,0,0,1-1,10,12.1,12.1,0,0,1-5,4.9,17.89,17.89,0,0,1-8.78,1.89A22.27,22.27,0,0,1,300.49,57.82Z" transform="translate(-5.54 -10.55)"/><path class="cls-1" d="M329.11,25.52h24.41v5H329.11ZM340.74,58a7.54,7.54,0,0,1-3.24-3.23,15.43,15.43,0,0,1-1.58-5.62,58.75,58.75,0,0,1-.26-8.31l.87-23.5,6.41-.79.72-.07.07.5a6.78,6.78,0,0,0-.61,1,5.61,5.61,0,0,0-.4,1.71l-.65,8.74.22,1L341.78,41a39.71,39.71,0,0,0,.29,8,6.58,6.58,0,0,0,1.77,3.9A4.73,4.73,0,0,0,347,54a9.19,9.19,0,0,0,4.21-.93A27,27,0,0,0,355,50.72l1.58,4.68a18.87,18.87,0,0,1-5.07,2.7,17.09,17.09,0,0,1-5.58.9A11.38,11.38,0,0,1,340.74,58Z" transform="translate(-5.54 -10.55)"/><path class="cls-1" d="M374.9,59q-5.61,0-8.64-2.53a8.12,8.12,0,0,1-3-6.52,9.38,9.38,0,0,1,1.26-4.8,10.83,10.83,0,0,1,3.56-3.67,18.51,18.51,0,0,1,5.48-2.32,27.68,27.68,0,0,1,7-.82h2.12c.75,0,1.54,0,2.38.11s1.69.15,2.56.25l.21,4.54c-.77-.1-1.56-.18-2.37-.26s-1.62-.12-2.42-.14-1.54,0-2.26,0a24.7,24.7,0,0,0-4.79.43,11.75,11.75,0,0,0-3.57,1.24,6.22,6.22,0,0,0-2.23,2,5.2,5.2,0,0,0-.79,2.87,4.87,4.87,0,0,0,.5,2.33,4.23,4.23,0,0,0,1.37,1.48,5.79,5.79,0,0,0,2,.81,11.7,11.7,0,0,0,2.52.25,12,12,0,0,0,4.57-.81A8.82,8.82,0,0,0,383.72,51a10.86,10.86,0,0,0,2.13-4,19.17,19.17,0,0,0,.72-5.55,19.14,19.14,0,0,0-1.05-7.08,6.48,6.48,0,0,0-3.13-3.57,11.78,11.78,0,0,0-5.25-1,12.94,12.94,0,0,0-4.58.83,11.86,11.86,0,0,0-4.14,2.77l-3.16-3.81a15.67,15.67,0,0,1,5.68-3.6,19,19,0,0,1,6.56-1.16,21.35,21.35,0,0,1,5.9.76A11.42,11.42,0,0,1,388,28.09a11.69,11.69,0,0,1,3.06,4.8,22.67,22.67,0,0,1,1.08,7.58v18h-6.55V53.68a9.79,9.79,0,0,1-2.19,2.62,10,10,0,0,1-2.67,1.62,13.27,13.27,0,0,1-2.91.83A17.83,17.83,0,0,1,374.9,59Z" transform="translate(-5.54 -10.55)"/><path class="cls-1" d="M401.33,25.52h6.41l-.15,9.58-.79-.86a11.92,11.92,0,0,1,1.48-4,11.31,11.31,0,0,1,2.52-3,10.85,10.85,0,0,1,3.27-1.87,11,11,0,0,1,3.75-.65,12.74,12.74,0,0,1,4.86.9,11.68,11.68,0,0,1,4,2.78l-2.66,5-.29.65-.5-.29c-.15-.38-.3-.75-.47-1.11a4,4,0,0,0-1.19-1.26,6.64,6.64,0,0,0-2.09-1.08,8.45,8.45,0,0,0-2.3-.29,9.84,9.84,0,0,0-3.46.64,9,9,0,0,0-5.33,5.44,14.14,14.14,0,0,0-.79,4.94V58.43h-6.26Z" transform="translate(-5.54 -10.55)"/><path class="cls-1" d="M432.43,25.52h24.41v5H432.43ZM444.06,58a7.54,7.54,0,0,1-3.24-3.23,15.43,15.43,0,0,1-1.58-5.62,58.75,58.75,0,0,1-.26-8.31l.87-23.5,6.41-.79.72-.07.07.5a6.78,6.78,0,0,0-.61,1,5.61,5.61,0,0,0-.4,1.71l-.65,8.74.22,1L445.1,41a39.71,39.71,0,0,0,.29,8,6.58,6.58,0,0,0,1.77,3.9,4.73,4.73,0,0,0,3.2,1.07,9.19,9.19,0,0,0,4.21-.93,27,27,0,0,0,3.71-2.31l1.58,4.68a18.87,18.87,0,0,1-5.07,2.7,17.09,17.09,0,0,1-5.58.9A11.38,11.38,0,0,1,444.06,58Z" transform="translate(-5.54 -10.55)"/><path class="cls-1" d="M481,59a18.79,18.79,0,0,1-6.59-1.1,14.51,14.51,0,0,1-5.18-3.23,13.82,13.82,0,0,1-3.35-5.34,21.25,21.25,0,0,1-1.15-7.25,20.74,20.74,0,0,1,1.19-7.32,15.63,15.63,0,0,1,3.27-5.41,14.32,14.32,0,0,1,4.9-3.37,15.36,15.36,0,0,1,6-1.18,14.82,14.82,0,0,1,5.33,1,11.81,11.81,0,0,1,4.36,2.89,14,14,0,0,1,2.91,4.9,20.27,20.27,0,0,1,1.08,7c0,.43,0,.89,0,1.39s-.06,1-.11,1.33h-23a14.25,14.25,0,0,0,1.05,4.94A9.66,9.66,0,0,0,474,51.55a9.5,9.5,0,0,0,3.27,1.93,12,12,0,0,0,3.93.63,13.22,13.22,0,0,0,3.13-.36,9.9,9.9,0,0,0,2.77-1.15,11.55,11.55,0,0,0,2.38-2l3.31,3.17a14.66,14.66,0,0,1-3.28,2.92,13.19,13.19,0,0,1-4,1.72A18.47,18.47,0,0,1,481,59ZM470.81,38.56h16.77A11.39,11.39,0,0,0,487,34.8,9,9,0,0,0,485.42,32a6.21,6.21,0,0,0-2.48-1.81,8.63,8.63,0,0,0-3.28-.6,8.72,8.72,0,0,0-3.09.53,7.59,7.59,0,0,0-2.63,1.66,10.22,10.22,0,0,0-2,2.8A12.4,12.4,0,0,0,470.81,38.56Z" transform="translate(-5.54 -10.55)"/><path class="cls-1" d="M501.26,25.52h6.41l-.14,9.58-.79-.86a11.91,11.91,0,0,1,1.47-4,11.7,11.7,0,0,1,2.52-3,11,11,0,0,1,7-2.52,12.67,12.67,0,0,1,4.86.9,11.62,11.62,0,0,1,4,2.78l-2.67,5-.28.65-.51-.29c-.14-.38-.3-.75-.47-1.11a3.85,3.85,0,0,0-1.18-1.26,6.64,6.64,0,0,0-2.09-1.08,8.48,8.48,0,0,0-2.31-.29,9.78,9.78,0,0,0-3.45.64,9,9,0,0,0-3.13,2,9.18,9.18,0,0,0-2.2,3.45,13.91,13.91,0,0,0-.79,4.94V58.43h-6.27Z" transform="translate(-5.54 -10.55)"/><path class="cls-1" d="M555,58.43V13.57h14.68A17.14,17.14,0,0,1,578,15.34,11.24,11.24,0,0,1,582.7,20a13.68,13.68,0,0,1,1.51,6.41,14.33,14.33,0,0,1-.83,4.93,10.83,10.83,0,0,1-2.56,4,11.84,11.84,0,0,1-4.39,2.7A18.92,18.92,0,0,1,570,39h-8.78V58.43Zm6.26-24.7h8.21a11.33,11.33,0,0,0,4.89-.9,5.83,5.83,0,0,0,2.74-2.55,8,8,0,0,0,.86-3.75,7.9,7.9,0,0,0-.86-3.74,6.43,6.43,0,0,0-2.74-2.67,10.12,10.12,0,0,0-4.82-1h-8.28Z" transform="translate(-5.54 -10.55)"/><path class="cls-1" d="M600.84,59q-5.61,0-8.64-2.53a8.09,8.09,0,0,1-3-6.52,9.38,9.38,0,0,1,1.26-4.8A10.74,10.74,0,0,1,594,41.48a18.56,18.56,0,0,1,5.47-2.32,27.7,27.7,0,0,1,7-.82h2.12c.74,0,1.54,0,2.38.11s1.69.15,2.55.25l.22,4.54c-.77-.1-1.56-.18-2.38-.26s-1.62-.12-2.41-.14-1.55,0-2.27,0a24.85,24.85,0,0,0-4.79.43,11.78,11.78,0,0,0-3.56,1.24,6.22,6.22,0,0,0-2.23,2,5.2,5.2,0,0,0-.79,2.87,4.76,4.76,0,0,0,.5,2.33,4.14,4.14,0,0,0,1.37,1.48,5.74,5.74,0,0,0,2,.81,11.7,11.7,0,0,0,2.52.25,12,12,0,0,0,4.58-.81A8.9,8.9,0,0,0,609.66,51a10.85,10.85,0,0,0,2.12-4,19.17,19.17,0,0,0,.72-5.55,19.16,19.16,0,0,0-1-7.08,6.52,6.52,0,0,0-3.13-3.57,11.82,11.82,0,0,0-5.26-1,12.89,12.89,0,0,0-4.57.83,11.86,11.86,0,0,0-4.14,2.77l-3.17-3.81a15.7,15.7,0,0,1,5.69-3.6,19,19,0,0,1,6.55-1.16,21.42,21.42,0,0,1,5.91.76A11.49,11.49,0,0,1,614,28.09a11.69,11.69,0,0,1,3.06,4.8,22.67,22.67,0,0,1,1.08,7.58v18h-6.55V53.68a10,10,0,0,1-2.2,2.62,10.16,10.16,0,0,1-2.66,1.62,13.35,13.35,0,0,1-2.92.83A17.72,17.72,0,0,1,600.84,59Z" transform="translate(-5.54 -10.55)"/><path class="cls-1" d="M635.94,57.72a15.87,15.87,0,0,1-5.29-3.56,16.39,16.39,0,0,1-3.49-5.38,18.9,18.9,0,0,1,0-13.57,16.7,16.7,0,0,1,3.49-5.45,16.07,16.07,0,0,1,5.29-3.64,17.67,17.67,0,0,1,14.18.34,14.1,14.1,0,0,1,5.3,4.54l-3.68,3.81-.43.51-.43-.44a2.85,2.85,0,0,0-.22-1.11,4.75,4.75,0,0,0-1.08-1.41,8.6,8.6,0,0,0-3.27-1.9,13.93,13.93,0,0,0-4.07-.54,9,9,0,0,0-3.74.81,10.12,10.12,0,0,0-3.21,2.34,11.39,11.39,0,0,0-2.23,3.73,13.78,13.78,0,0,0-.83,4.89,13.53,13.53,0,0,0,.83,4.86,12,12,0,0,0,2.27,3.76A10.25,10.25,0,0,0,643,53.68a11.16,11.16,0,0,0,3.1-.44,10.41,10.41,0,0,0,2.88-1.33,11.62,11.62,0,0,0,2.52-2.27l3.52,4a16,16,0,0,1-5.68,4A17.44,17.44,0,0,1,642.67,59,17.14,17.14,0,0,1,635.94,57.72Z" transform="translate(-5.54 -10.55)"/><path class="cls-1" d="M673.13,42.37,669.31,46V58.43h-6.26V10.55H670v.57a1.87,1.87,0,0,0-.54.93,9.53,9.53,0,0,0-.11,1.72V39.42l15.27-14.26,1,.15c.34.05.69.08,1,.11l1.11.07,1,0h2.59l-13.68,13,15.77,19.87-7.56.29Z" transform="translate(-5.54 -10.55)"/></g></g></svg>